HIERARCHY
ROOT Hips
{
	OFFSET 0.000000 71.427986 0.000000
	CHANNELS 6 Xposition Yposition Zposition Xrotation Yrotation Zrotation
	JOINT Pelvis
	{
		OFFSET 0.000000 0.000000 0.000000
		CHANNELS 3 Xrotation Yrotation Zrotation
		JOINT LeftUpLeg
		{
			OFFSET 6.797100 -2.508499 -1.318700
			CHANNELS 3 Xrotation Yrotation Zrotation
			JOINT LeftLeg
			{
				OFFSET 0.069008 -29.241863 0.690200
				CHANNELS 3 Xrotation Yrotation Zrotation
				JOINT LeftFoot
				{
					OFFSET -0.069008 -29.568123 -0.266800
					CHANNELS 3 Xrotation Yrotation Zrotation
					JOINT LeftToeBase
					{
						OFFSET 3.145500 -8.631000 16.059900
						CHANNELS 3 Xrotation Yrotation Zrotation
						End Site
						{
							OFFSET 0.000000 18.501587 0.000000
						}
					}
				}
			}
			JOINT Left_ShortSleeve
			{
				OFFSET 0.265923 -10.480953 1.153800
				CHANNELS 3 Xrotation Yrotation Zrotation
				End Site
				{
					OFFSET 1.725763 19.823879 0.000000
				}
			}
		}
		JOINT RightUpLeg
		{
			OFFSET -6.797100 -2.508499 -1.318700
			CHANNELS 3 Xrotation Yrotation Zrotation
			JOINT RightLeg
			{
				OFFSET -0.082453 -29.241932 0.688000
				CHANNELS 3 Xrotation Yrotation Zrotation
				JOINT RightFoot
				{
					OFFSET 0.082453 -29.568058 -0.264600
					CHANNELS 3 Xrotation Yrotation Zrotation
					JOINT RightToeBase
					{
						OFFSET -3.115300 -8.682800 16.113400
						CHANNELS 3 Xrotation Yrotation Zrotation
						End Site
						{
							OFFSET 0.000000 18.567114 0.000000
						}
					}
				}
			}
			JOINT Right_ShortSleeve
			{
				OFFSET -0.265923 -10.480953 1.153800
				CHANNELS 3 Xrotation Yrotation Zrotation
				End Site
				{
					OFFSET -1.725766 19.823910 0.000000
				}
			}
		}
	}
	JOINT Spine
	{
		OFFSET 0.000000 13.368103 0.470500
		CHANNELS 3 Xrotation Yrotation Zrotation
		JOINT Spine1
		{
			OFFSET 0.147000 13.837402 0.538800
			CHANNELS 3 Xrotation Yrotation Zrotation
			JOINT Spine2
			{
				OFFSET 0.168000 16.242897 -1.435500
				CHANNELS 3 Xrotation Yrotation Zrotation
				JOINT Neck
				{
					OFFSET 0.217200 18.631500 -1.679100
					CHANNELS 3 Xrotation Yrotation Zrotation
					JOINT Head
					{
						OFFSET 0.000000 6.599396 1.385900
						CHANNELS 3 Xrotation Yrotation Zrotation
						JOINT Hat
						{
							OFFSET -0.532200 27.220596 -10.096100
							CHANNELS 3 Xrotation Yrotation Zrotation
							End Site
							{
								OFFSET 0.000000 22.029861 0.000000
							}
						}
						JOINT HairD
						{
							OFFSET -10.777400 17.437393 -1.325900
							CHANNELS 3 Xrotation Yrotation Zrotation
							JOINT HairD1
							{
								OFFSET -3.290299 -11.051193 1.062200
								CHANNELS 3 Xrotation Yrotation Zrotation
								End Site
								{
									OFFSET 0.000000 11.579437 0.000000
								}
							}
						}
						JOINT HairB
						{
							OFFSET -10.777400 17.437393 1.467900
							CHANNELS 3 Xrotation Yrotation Zrotation
							JOINT HairB1
							{
								OFFSET -1.561200 -12.956299 3.590200
								CHANNELS 3 Xrotation Yrotation Zrotation
								End Site
								{
									OFFSET 0.000000 13.534866 0.000000
								}
							}
						}
						JOINT HairA
						{
							OFFSET 9.713100 17.437393 1.467900
							CHANNELS 3 Xrotation Yrotation Zrotation
							JOINT HairA1
							{
								OFFSET 1.561200 -12.956299 3.590200
								CHANNELS 3 Xrotation Yrotation Zrotation
								End Site
								{
									OFFSET 0.000000 13.534866 0.000000
								}
							}
						}
						JOINT HairC
						{
							OFFSET 9.713100 17.437393 -1.325900
							CHANNELS 3 Xrotation Yrotation Zrotation
							JOINT HairC1
							{
								OFFSET 3.290300 -11.051193 1.062200
								CHANNELS 3 Xrotation Yrotation Zrotation
								End Site
								{
									OFFSET 0.000000 11.579437 0.000000
								}
							}
						}
					}
				}
				JOINT LeftShoulder
				{
					OFFSET 5.101800 15.108002 -2.763700
					CHANNELS 3 Xrotation Yrotation Zrotation
					JOINT LeftArm
					{
						OFFSET 9.825497 2.506317 -1.597400
						CHANNELS 3 Xrotation Yrotation Zrotation
						JOINT LeftForeArm
						{
							OFFSET 21.966244 0.000000 0.000000
							CHANNELS 3 Xrotation Yrotation Zrotation
							JOINT LeftHand
							{
								OFFSET 33.879036 0.000000 0.000000
								CHANNELS 3 Xrotation Yrotation Zrotation
								JOINT LeftHandThumb1
								{
									OFFSET 6.715286 -2.359680 3.363841
									CHANNELS 3 Xrotation Yrotation Zrotation
									JOINT LeftHandThumb2
									{
										OFFSET 2.507072 -1.447464 1.447461
										CHANNELS 3 Xrotation Yrotation Zrotation
										JOINT LeftHandThumb3
										{
											OFFSET 2.898338 -1.673355 1.673357
											CHANNELS 3 Xrotation Yrotation Zrotation
											End Site
											{
												OFFSET -0.295959 3.727692 -0.131651
											}
										}
									}
								}
								JOINT LeftHandIndex1
								{
									OFFSET 14.190811 -0.254547 3.840278
									CHANNELS 3 Xrotation Yrotation Zrotation
									JOINT LeftHandIndex2
									{
										OFFSET 3.551727 0.000000 -0.000000
										CHANNELS 3 Xrotation Yrotation Zrotation
										JOINT LeftHandIndex3
										{
											OFFSET 2.894196 0.000000 0.000000
											CHANNELS 3 Xrotation Yrotation Zrotation
											End Site
											{
												OFFSET -1.000603 2.690872 0.366626
											}
										}
									}
								}
								JOINT LeftHandMiddle1
								{
									OFFSET 13.776489 0.000000 0.000000
									CHANNELS 3 Xrotation Yrotation Zrotation
									JOINT LeftHandMiddle2
									{
										OFFSET 3.438232 0.000000 0.000000
										CHANNELS 3 Xrotation Yrotation Zrotation
										JOINT LeftHandMiddle3
										{
											OFFSET 3.691551 0.000000 0.000000
											CHANNELS 3 Xrotation Yrotation Zrotation
											End Site
											{
												OFFSET -1.082298 3.499527 0.457670
											}
										}
									}
								}
								JOINT LeftHandRing1
								{
									OFFSET 13.966164 -0.268127 -3.067488
									CHANNELS 3 Xrotation Yrotation Zrotation
									JOINT LeftHandRing2
									{
										OFFSET 3.162567 0.000000 0.000000
										CHANNELS 3 Xrotation Yrotation Zrotation
										JOINT LeftHandRing3
										{
											OFFSET 3.324348 0.000000 0.000000
											CHANNELS 3 Xrotation Yrotation Zrotation
											End Site
											{
												OFFSET -0.861900 3.184998 0.405154
											}
										}
									}
								}
								JOINT LeftHandPinky1
								{
									OFFSET 13.131393 -0.168503 -5.746925
									CHANNELS 3 Xrotation Yrotation Zrotation
									JOINT LeftHandPinky2
									{
										OFFSET 2.849182 0.000000 0.000000
										CHANNELS 3 Xrotation Yrotation Zrotation
										JOINT LeftHandPinky3
										{
											OFFSET 2.805038 0.000000 0.000000
											CHANNELS 3 Xrotation Yrotation Zrotation
											End Site
											{
												OFFSET -0.882500 2.642609 0.325652
											}
										}
									}
								}
							}
							JOINT Left_Sleeve
							{
								OFFSET 6.592125 -0.646545 0.805568
								CHANNELS 3 Xrotation Yrotation Zrotation
								End Site
								{
									OFFSET -0.000179 20.275787 -0.000000
								}
							}
						}
					}
				}
				JOINT RightShoulder
				{
					OFFSET -5.731700 15.108002 -2.763700
					CHANNELS 3 Xrotation Yrotation Zrotation
					JOINT RightArm
					{
						OFFSET -9.825497 2.506317 -1.597400
						CHANNELS 3 Xrotation Yrotation Zrotation
						JOINT RightForeArm
						{
							OFFSET -21.966242 0.000000 0.000000
							CHANNELS 3 Xrotation Yrotation Zrotation
							JOINT RightHand
							{
								OFFSET -33.879032 0.000000 0.000000
								CHANNELS 3 Xrotation Yrotation Zrotation
								JOINT RightHandThumb1
								{
									OFFSET -6.715286 -2.359680 3.363841
									CHANNELS 3 Xrotation Yrotation Zrotation
									JOINT RightHandThumb2
									{
										OFFSET -2.507072 -1.447464 1.447461
										CHANNELS 3 Xrotation Yrotation Zrotation
										JOINT RightHandThumb3
										{
											OFFSET -2.898338 -1.673355 1.673357
											CHANNELS 3 Xrotation Yrotation Zrotation
											End Site
											{
												OFFSET 0.295959 3.727692 -0.131651
											}
										}
									}
								}
								JOINT RightHandIndex1
								{
									OFFSET -14.190811 -0.254547 3.840278
									CHANNELS 3 Xrotation Yrotation Zrotation
									JOINT RightHandIndex2
									{
										OFFSET -3.551727 0.000000 -0.000000
										CHANNELS 3 Xrotation Yrotation Zrotation
										JOINT RightHandIndex3
										{
											OFFSET -2.894196 0.000000 0.000000
											CHANNELS 3 Xrotation Yrotation Zrotation
											End Site
											{
												OFFSET 1.000603 2.690872 0.366626
											}
										}
									}
								}
								JOINT RightHandMiddle1
								{
									OFFSET -13.776489 0.000000 0.000000
									CHANNELS 3 Xrotation Yrotation Zrotation
									JOINT RightHandMiddle2
									{
										OFFSET -3.438232 0.000000 0.000000
										CHANNELS 3 Xrotation Yrotation Zrotation
										JOINT RightHandMiddle3
										{
											OFFSET -3.691551 0.000000 0.000000
											CHANNELS 3 Xrotation Yrotation Zrotation
											End Site
											{
												OFFSET 1.082298 3.499527 0.457670
											}
										}
									}
								}
								JOINT RightHandRing1
								{
									OFFSET -13.966164 -0.268127 -3.067488
									CHANNELS 3 Xrotation Yrotation Zrotation
									JOINT RightHandRing2
									{
										OFFSET -3.162567 0.000000 0.000000
										CHANNELS 3 Xrotation Yrotation Zrotation
										JOINT RightHandRing3
										{
											OFFSET -3.324348 0.000000 0.000000
											CHANNELS 3 Xrotation Yrotation Zrotation
											End Site
											{
												OFFSET 0.861900 3.184998 0.405154
											}
										}
									}
								}
								JOINT RightHandPinky1
								{
									OFFSET -13.131393 -0.168503 -5.746925
									CHANNELS 3 Xrotation Yrotation Zrotation
									JOINT RightHandPinky2
									{
										OFFSET -2.849182 0.000000 0.000000
										CHANNELS 3 Xrotation Yrotation Zrotation
										JOINT RightHandPinky3
										{
											OFFSET -2.805038 0.000000 0.000000
											CHANNELS 3 Xrotation Yrotation Zrotation
											End Site
											{
												OFFSET 0.882500 2.642609 0.325652
											}
										}
									}
								}
							}
							JOINT Right_Sleeve
							{
								OFFSET -6.592125 -0.646545 0.805568
								CHANNELS 3 Xrotation Yrotation Zrotation
								End Site
								{
									OFFSET 0.000179 20.275787 -0.000000
								}
							}
						}
					}
				}
				JOINT Bind_Right_JacketString
				{
					OFFSET -3.534800 11.969597 7.200700
					CHANNELS 3 Xrotation Yrotation Zrotation
					JOINT Bind_Right_JacketString1
					{
						OFFSET -0.319900 -6.102600 2.794100
						CHANNELS 3 Xrotation Yrotation Zrotation
						End Site
						{
							OFFSET 0.000000 6.719452 0.000000
						}
					}
				}
				JOINT Bind_Left_JacketString
				{
					OFFSET 2.904800 11.969597 7.200700
					CHANNELS 3 Xrotation Yrotation Zrotation
					JOINT Bind_Left_JacketString1
					{
						OFFSET 0.364800 -5.904503 3.186800
						CHANNELS 3 Xrotation Yrotation Zrotation
						End Site
						{
							OFFSET 0.000000 6.719513 0.000000
						}
					}
				}
				JOINT HairE
				{
					OFFSET 5.915200 17.612701 -11.592200
					CHANNELS 3 Xrotation Yrotation Zrotation
					JOINT HairE1
					{
						OFFSET 0.289200 -7.171898 -1.284500
						CHANNELS 3 Xrotation Yrotation Zrotation
						End Site
						{
							OFFSET 0.000000 7.291756 0.000000
						}
					}
				}
				JOINT HairF
				{
					OFFSET -0.864800 17.612701 -11.592200
					CHANNELS 3 Xrotation Yrotation Zrotation
					JOINT HairF1
					{
						OFFSET 0.000000 -14.087097 -2.127501
						CHANNELS 3 Xrotation Yrotation Zrotation
						End Site
						{
							OFFSET 0.000000 14.246841 0.000000
						}
					}
				}
				JOINT HairG
				{
					OFFSET -8.087700 17.612701 -11.592200
					CHANNELS 3 Xrotation Yrotation Zrotation
					JOINT HairG1
					{
						OFFSET -0.293600 -6.081398 -0.910100
						CHANNELS 3 Xrotation Yrotation Zrotation
						End Site
						{
							OFFSET 0.000000 6.156120 0.000000
						}
					}
				}
			}
		}
	}
	JOINT Pouch
	{
		OFFSET 0.000000 4.394501 10.847300
		CHANNELS 3 Xrotation Yrotation Zrotation
		End Site
		{
			OFFSET 0.000000 21.880577 0.000000
		}
	}
	JOINT Bag
	{
		OFFSET -13.229000 4.813004 -0.593300
		CHANNELS 3 Xrotation Yrotation Zrotation
		End Site
		{
			OFFSET 0.000000 21.880577 0.000000
		}
	}
	JOINT OccupyGuyFacialAnim_Joint
	{
		OFFSET 1.000000 -70.206398 -1.655000
		CHANNELS 3 Xrotation Yrotation Zrotation
		End Site
		{
			OFFSET 0.000000 21.880577 0.000000
		}
	}
}
MOTION
Frames: 4
Frame Time: 0.016667
-0.983796 61.113205 0.973934 -5.289844 -45.103561 0.075952 0.000000 0.000002 0.000001 -30.005311 8.764950 16.917229 59.651546 -6.803124 4.274560 -27.272544 -7.853982 -13.834134 -0.000000 0.000003 -0.000000 -0.000001 -0.000001 -0.000001 -23.366103 -12.095483 -27.278083 58.856874 -8.981594 -7.733191 -28.146803 -6.820421 22.142744 0.000000 -0.000000 0.000001 -0.000002 -0.000001 0.000001 9.472855 7.172820 -1.781893 2.187717 0.989896 -0.915630 2.202832 0.982769 -0.894151 0.084651 13.220554 4.538677 8.920925 20.138138 -4.130232 0.000001 -0.000000 -0.000000 0.000001 -0.000000 -0.000000 0.000001 -0.000000 0.000000 0.000001 -0.000000 -0.000001 0.000001 -0.000000 -0.000001 0.000001 -0.000000 -0.000001 0.000001 -0.000000 -0.000001 0.000001 -0.000000 -0.000000 0.000001 -0.000000 -0.000000 1.117180 3.546351 -8.633310 -53.487017 4.935517 -51.502987 0.000351 -106.358087 0.000353 1.988609 -7.706143 -15.869262 -6.141200 -11.690804 -6.761682 9.914152 42.595501 3.409837 0.000001 -0.000001 -0.000005 0.255312 3.378232 -45.814327 5.654071 5.847737 -88.067435 -0.000000 -0.000001 0.000001 -0.461472 3.841596 -39.722679 6.450754 5.820354 -95.892871 -0.000000 0.000001 0.000001 0.469724 4.966802 -39.799437 8.181040 5.368631 -113.502998 -0.000001 -0.000001 -0.000001 -3.762425 9.063705 -45.253818 5.342533 5.829009 -85.005331 -0.000000 0.000002 -0.000002 -0.000001 -0.000004 0.000001 3.036128 13.027197 -5.371410 -48.713729 27.172840 83.457071 0.000206 105.988314 -0.000196 -8.345366 17.548079 8.775671 -7.341086 13.749664 7.412328 9.855786 -44.489089 -3.903250 -0.000000 -0.000006 0.000003 -0.124370 -2.384792 45.108885 4.500576 -4.654523 88.071198 0.000001 -0.000001 0.000004 -0.761623 -2.932915 39.031082 5.133884 -4.632756 95.881649 0.000001 -0.000002 -0.000003 0.154758 -4.068787 39.122675 6.509733 -4.273608 113.462870 -0.000000 -0.000000 -0.000002 -4.198876 -8.025523 44.637779 4.252907 -4.639629 85.014805 -0.000000 0.000001 -0.000001 -0.000000 0.000001 -0.000002 -0.000000 -0.000000 0.000000 -0.000000 -0.000000 -0.000000 -0.000000 -0.000000 -0.000000 -0.000000 -0.000000 -0.000000 -0.000000 -0.000000 0.000000 -0.000000 -0.000000 -0.000000 -0.000000 -0.000000 -0.000000 -0.000000 -0.000000 -0.000000 -0.000000 -0.000000 0.000000 -0.000000 -0.000000 -0.000000 0.000000 0.000002 0.000001 0.000000 0.000002 0.000001 0.000000 0.000002 0.000001 
-1.008152 61.039391 0.766852 -5.394633 -45.368770 0.010180 0.000001 0.000001 0.000000 -30.530129 8.486779 17.054298 60.450179 -6.650749 4.377404 -26.711465 -7.680597 -13.997355 0.000000 -0.000001 0.000000 0.000002 -0.000002 -0.000002 -23.738894 -12.098579 -27.237734 59.246311 -8.627179 -7.859856 -28.345077 -6.810102 22.128391 0.000000 0.000000 0.000000 0.000002 -0.000000 -0.000002 9.487546 7.262871 -1.646497 2.190248 1.012033 -0.889779 2.204672 1.005825 -0.868759 0.085769 13.245578 4.386413 8.800630 20.230045 -4.209237 -0.000001 -0.000000 -0.000001 -0.000001 -0.000000 -0.000001 -0.000001 -0.000000 -0.000000 -0.000001 -0.000000 -0.000001 -0.000001 -0.000000 -0.000001 -0.000001 -0.000000 -0.000001 -0.000001 -0.000000 -0.000001 -0.000001 -0.000000 -0.000001 -0.000001 -0.000000 -0.000001 1.115725 3.626835 -8.693361 -53.153652 4.985187 -51.684311 0.000031 -106.535242 0.000039 2.135045 -7.826411 -15.735520 -6.141203 -11.690807 -6.761679 9.914153 42.595505 3.409837 0.000000 0.000002 -0.000001 0.255310 3.378235 -45.814320 5.654072 5.847736 -88.067435 0.000001 -0.000000 -0.000002 -0.461475 3.841600 -39.722679 6.450756 5.820353 -95.892871 0.000002 0.000003 -0.000002 0.469720 4.966804 -39.799430 8.181039 5.368625 -113.502998 0.000000 -0.000000 -0.000003 -3.762428 9.063708 -45.253821 5.342531 5.829005 -85.005331 0.000000 0.000000 -0.000001 0.000000 0.000001 0.000002 3.033763 13.290780 -5.488889 -48.445572 26.967612 82.836452 0.000039 106.217289 -0.000030 -8.837565 17.355389 8.303458 -7.341086 13.749666 7.412333 9.855791 -44.489089 -3.903244 -0.000002 0.000004 0.000001 -0.124370 -2.384793 45.108881 4.500576 -4.654525 88.071191 -0.000001 -0.000001 0.000000 -0.761623 -2.932917 39.031082 5.133887 -4.632754 95.881656 0.000003 -0.000001 0.000001 0.154757 -4.068789 39.122675 6.509735 -4.273610 113.462870 0.000001 0.000000 -0.000001 -4.198877 -8.025525 44.637779 4.252910 -4.639632 85.014811 -0.000000 -0.000000 -0.000001 0.000002 0.000003 0.000001 0.000000 0.000001 0.000000 0.000000 -0.000003 0.000000 0.000000 0.000001 -0.000000 0.000000 0.000001 -0.000000 0.000000 0.000001 0.000000 0.000000 -0.000003 0.000000 0.000000 0.000001 -0.000000 0.000000 0.000001 -0.000000 0.000000 0.000001 0.000000 0.000000 -0.000003 0.000000 0.000001 0.000001 0.000000 0.000001 0.000001 0.000000 0.000001 0.000001 0.000000 
-1.011229 60.959831 0.583668 -5.526120 -45.658992 -0.085795 0.000000 0.000001 0.000001 -31.045614 8.186911 17.196183 61.328624 -6.430667 4.426722 -26.175778 -7.582516 -14.141931 0.000000 0.000000 0.000000 0.000000 -0.000002 0.000000 -24.157501 -12.129215 -27.214670 59.680806 -8.237872 -8.034766 -28.552382 -6.787036 22.022046 -0.000000 0.000001 -0.000000 0.000001 0.000000 0.000001 9.522166 7.326161 -1.500728 2.197573 1.027110 -0.862104 2.211433 1.021843 -0.841508 0.080982 13.269764 4.242636 8.681408 20.313044 -4.292199 0.000001 0.000000 0.000000 0.000001 0.000000 0.000000 0.000001 0.000000 0.000001 0.000001 0.000000 -0.000000 0.000001 0.000000 0.000001 0.000001 0.000000 -0.000000 0.000001 0.000000 0.000001 0.000001 0.000000 0.000000 0.000001 0.000000 0.000000 1.116595 3.696296 -8.750943 -52.843026 5.031845 -51.853440 0.000020 -106.672399 0.000034 2.300304 -7.951174 -15.637928 -6.141205 -11.690804 -6.761684 9.914152 42.595508 3.409837 0.000002 -0.000002 -0.000002 0.255314 3.378230 -45.814324 5.654072 5.847736 -88.067435 0.000001 0.000002 -0.000003 -0.461472 3.841600 -39.722679 6.450754 5.820355 -95.892871 0.000003 0.000001 0.000003 0.469723 4.966802 -39.799437 8.181037 5.368630 -113.502998 -0.000002 0.000003 -0.000001 -3.762428 9.063705 -45.253818 5.342536 5.829007 -85.005331 0.000001 -0.000002 0.000002 -0.000001 -0.000000 -0.000001 3.025577 13.532527 -5.623952 -48.207755 26.760162 82.252990 0.000133 106.474241 -0.000136 -9.184493 17.196931 7.719674 -7.341086 13.749667 7.412333 9.855790 -44.489093 -3.903245 0.000000 -0.000003 0.000003 -0.124372 -2.384791 45.108878 4.500577 -4.654523 88.071191 -0.000002 0.000001 0.000002 -0.761624 -2.932914 39.031082 5.133885 -4.632757 95.881649 -0.000000 0.000002 -0.000004 0.154757 -4.068785 39.122668 6.509733 -4.273606 113.462863 -0.000001 -0.000001 -0.000001 -4.198877 -8.025520 44.637779 4.252906 -4.639630 85.014811 -0.000001 0.000001 -0.000001 0.000001 0.000002 -0.000000 -0.000000 0.000001 -0.000000 -0.000000 -0.000003 0.000000 -0.000000 0.000001 -0.000000 -0.000000 0.000001 -0.000000 -0.000000 0.000001 -0.000000 -0.000000 -0.000003 0.000000 -0.000000 0.000001 -0.000000 -0.000000 0.000001 -0.000000 -0.000000 0.000001 -0.000000 -0.000000 -0.000003 0.000000 0.000000 0.000001 0.000001 0.000000 0.000001 0.000001 0.000000 0.000001 0.000001 
-0.994537 60.874680 0.431471 -5.686157 -45.965964 -0.209590 0.000000 0.000002 -0.000000 -31.570907 7.875253 17.319307 62.322969 -6.207307 4.461585 -25.642837 -7.488433 -14.241861 -0.000000 0.000001 -0.000000 0.000000 0.000001 0.000003 -24.585876 -12.175828 -27.215254 60.125226 -7.810206 -8.247214 -28.755622 -6.757947 21.877303 -0.000000 0.000001 0.000000 -0.000001 0.000000 -0.000001 9.572241 7.362386 -1.352604 2.208616 1.035253 -0.834413 2.222026 1.030873 -0.814188 0.077830 13.290472 4.114897 8.569952 20.386131 -4.382676 0.000001 0.000000 0.000000 0.000001 0.000000 0.000000 0.000001 0.000000 0.000002 0.000001 0.000000 0.000000 0.000001 0.000000 0.000000 0.000001 0.000000 0.000000 0.000001 0.000000 0.000000 0.000001 0.000000 0.000000 0.000001 0.000000 0.000000 1.119849 3.753398 -8.805221 -52.554819 5.073443 -52.013110 0.000018 -106.767571 0.000029 2.477038 -8.092266 -15.589492 -6.141200 -11.690807 -6.761687 9.914143 42.595495 3.409834 0.000003 -0.000001 -0.000000 0.255312 3.378231 -45.814324 5.654075 5.847733 -88.067435 0.000003 0.000003 -0.000001 -0.461474 3.841598 -39.722676 6.450755 5.820355 -95.892871 -0.000001 0.000004 -0.000004 0.469721 4.966800 -39.799434 8.181037 5.368625 -113.502991 -0.000001 0.000004 -0.000001 -3.762426 9.063702 -45.253825 5.342529 5.829008 -85.005331 0.000000 0.000001 -0.000001 -0.000001 0.000004 0.000000 3.012412 13.754817 -5.753860 -47.992338 26.566316 81.688864 0.000183 106.756273 -0.000185 -9.402022 17.062738 7.024380 -7.341086 13.749668 7.412327 9.855787 -44.489089 -3.903242 0.000000 0.000000 -0.000000 -0.124371 -2.384793 45.108878 4.500573 -4.654525 88.071191 -0.000001 -0.000000 0.000004 -0.761623 -2.932916 39.031085 5.133886 -4.632756 95.881656 0.000001 -0.000004 -0.000001 0.154756 -4.068791 39.122668 6.509735 -4.273607 113.462863 0.000001 0.000001 -0.000002 -4.198877 -8.025524 44.637783 4.252907 -4.639630 85.014798 -0.000001 0.000001 -0.000003 0.000000 0.000001 0.000001 0.000000 0.000001 0.000000 0.000000 0.000001 0.000000 0.000000 0.000001 -0.000000 0.000000 0.000001 -0.000000 0.000000 0.000001 0.000000 0.000000 0.000001 0.000000 0.000000 0.000001 -0.000000 0.000000 0.000001 -0.000000 0.000000 0.000001 0.000000 0.000000 0.000001 0.000000 0.000000 0.000002 -0.000000 0.000000 0.000002 -0.000000 0.000000 0.000002 -0.000000 
